<svg viewBox="0 0 560.8 175.73" xmlns="http://www.w3.org/2000/svg"><path d="m266.15 59h10.9v-10.94h-10.9zm0 66.8h10.9v-58.57h-10.9z"/><path d="m544.58 110.56 16.22-43.33h-11.6l-11.08 29.25z"/><path d="m534.36 106.08-17.86-38.85h-12.41l-16.85 38.85-15.85-38.85h-11.6l23.01 58.53h8.78l-.1-.1.2.1 18.57-43.5 19.67 43.5h8.88l2.2-5.85z"/><path d="m322.16 78.13v-10.9h-24v-19.17h-10.9v64.58a13.1 13.1 0 0 0 13.12 13.12h21.8v-10.9h-21.8a2.24 2.24 0 0 1 -2.22-2.22v-34.51z"/><path d="m375.13 67.23h-46.42v58.53h10.9v-45.41a2.24 2.24 0 0 1 2.22-2.22h33.3a2.24 2.24 0 0 1 2.22 2.22v45.41h10.9v-45.41a13.09 13.09 0 0 0 -13.12-13.12"/><path d="m444.05 67.23h-33.3a13.1 13.1 0 0 0 -13.12 13.12v32.29a13.1 13.1 0 0 0 13.12 13.12h33.3a13.1 13.1 0 0 0 13.12-13.12v-32.29a13.09 13.09 0 0 0 -13.12-13.12m2.22 45.41a2.24 2.24 0 0 1 -2.22 2.22h-33.3a2.24 2.24 0 0 1 -2.22-2.22v-32.29a2.24 2.24 0 0 1 2.22-2.22h33.3a2.24 2.24 0 0 1 2.22 2.22z"/><path d="m211.72 83.98h37.78v10.9h-37.78z"/><path d="m204.7 83.98v-19.98h55.7v-10.9h-66.6v72.66h10.9v-30.88z"/><g fill="#34be82"><path d="m121 112.48c-11.34-7.55-24-12.12-36.95-16-39.18-11-63.55-1.92-63.55-1.92 12.06 4.75 54.14 18.44 72.83 30.38-.07 0-48-15.6-75.4-17.72a62.88 62.88 0 0 0 5.68 29.95 64 64 0 0 0 22.61 27.07c15.25 10.22 32 13.69 50.08 10.15 1.47-.29 2.93-.65 4.39-1 .1 0 .18-.13.27-.19-1.24-4.12-10.54-17.2-30.46-26.87 13.72 2.67 31.09 13.67 41.26 22.67 16.47-7.36 23.7-18.58 25.36-22.23 2.71-5.94 2.44-11.78-.35-17.65-3.47-7.27-9.26-12.33-15.76-16.66"/><path d="m143 83.81a88.27 88.27 0 0 0 -7.37-12.31 76.68 76.68 0 0 0 -6.89-8 1.64 1.64 0 0 1 -.52-1.64 3.4 3.4 0 0 1 .29-.8c3.78-8 6.36-16.23 6-25.16a28 28 0 0 0 -4.71-15c-7.06-10.48-17.2-16.13-29.18-19a73 73 0 0 0 -33.43-.06c-10 2.31-18.88 6.83-25.71 14.78-6.07 7.15-8.14 15.38-7.15 24.56a59.17 59.17 0 0 0 5.19 18.42c.17.37.31.66.43.9a5.92 5.92 0 0 0 .48.83s22.15 1.36 35.08 5.36a72.87 72.87 0 0 1 16.81 6.39 242.26 242.26 0 0 0 -62.06-2.52 259.72 259.72 0 0 0 -30.26 4.44v.64h10.32c5.37 0 10.73.14 16.08.37a317.92 317.92 0 0 1 47.21 5.32 187.77 187.77 0 0 1 42.1 12.97 95.22 95.22 0 0 1 21 12.6c1.51 1.23 3 2.51 4.37 3.87a87.82 87.82 0 0 1 7.24 8.48c2.45-12.6-2.23-28.77-5.36-35.44m-59.66-39.16a67 67 0 0 0 -27.49 5.86c-2-5.55-3.63-11.69-2.26-17.46 1.45-7.05 10.45-10.82 16.33-12.42a54.19 54.19 0 0 1 21.12-1.3c8.37 1 16.09 3.52 22 10.07a10.27 10.27 0 0 1 2.75 6c.44 4.84-.82 9.38-2.59 13.8a14 14 0 0 1 -1 1.89 66.93 66.93 0 0 0 -28.86-6.44"/></g></svg>