<svg viewBox="0 0 367 77.7" xmlns="http://www.w3.org/2000/svg"><path d="m72.35 10.9h10.9v-10.9h-10.9zm0 66.8h10.9v-58.53h-10.9z"/><path d="m350.77 62.5 16.23-43.33h-11.61l-11.08 29.25z"/><path d="m340.56 58.02-17.86-38.85h-12.41l-16.85 38.85-15.85-38.85h-11.6l23.01 58.53h8.77l-.1-.1.21.1 18.56-43.49 19.68 43.49h8.88l2.2-5.85z"/><path d="m128.36 30.07v-10.9h-24v-19.17h-10.92v64.58a13.1 13.1 0 0 0 13.12 13.12h21.8v-10.9h-21.8a2.24 2.24 0 0 1 -2.22-2.22v-34.51z"/><path d="m181.33 19.17h-46.42v58.53h10.9v-45.41a2.24 2.24 0 0 1 2.19-2.22h33.3a2.24 2.24 0 0 1 2.22 2.22v45.41h10.9v-45.41a13.09 13.09 0 0 0 -13.12-13.12"/><path d="m250.25 19.17h-33.25a13.1 13.1 0 0 0 -13.12 13.12v32.29a13.1 13.1 0 0 0 13.12 13.12h33.3a13.1 13.1 0 0 0 13.12-13.12v-32.29a13.09 13.09 0 0 0 -13.12-13.12m2.22 45.41a2.24 2.24 0 0 1 -2.22 2.22h-33.3a2.24 2.24 0 0 1 -2.22-2.22v-32.29a2.24 2.24 0 0 1 2.22-2.22h33.3a2.24 2.24 0 0 1 2.22 2.22z"/><path d="m17.92 35.92h37.78v10.9h-37.78z"/><path d="m10.9 35.92v-19.98h55.7v-10.9h-66.6v72.66h10.9v-30.88z"/></svg>