<svg viewBox="0 0 149.03 175.73" xmlns="http://www.w3.org/2000/svg"><g fill="#34be82"><path d="m121 112.48c-11.34-7.55-24-12.12-36.95-16-39.18-11-63.55-1.92-63.55-1.92 12.06 4.75 54.14 18.44 72.83 30.38-.07 0-48-15.6-75.4-17.72a62.88 62.88 0 0 0 5.68 29.95 64 64 0 0 0 22.61 27.07c15.25 10.22 32 13.69 50.08 10.15 1.47-.29 2.93-.65 4.39-1 .1 0 .18-.13.27-.19-1.24-4.12-10.54-17.2-30.46-26.87 13.72 2.67 31.09 13.67 41.26 22.67 16.47-7.36 23.7-18.58 25.36-22.23 2.71-5.94 2.44-11.78-.35-17.65-3.47-7.27-9.26-12.33-15.76-16.66"/><path d="m143 83.81a88.27 88.27 0 0 0 -7.37-12.31 76.68 76.68 0 0 0 -6.89-8 1.64 1.64 0 0 1 -.52-1.64 3.4 3.4 0 0 1 .29-.8c3.78-8 6.36-16.23 6-25.16a28 28 0 0 0 -4.71-15c-7.06-10.48-17.2-16.13-29.18-19a73 73 0 0 0 -33.43-.06c-10 2.31-18.88 6.83-25.71 14.78-6.07 7.15-8.14 15.38-7.15 24.56a59.17 59.17 0 0 0 5.19 18.42c.17.37.31.66.43.9a5.92 5.92 0 0 0 .48.83s22.15 1.36 35.08 5.36a72.87 72.87 0 0 1 16.81 6.39 242.26 242.26 0 0 0 -62.06-2.52 259.72 259.72 0 0 0 -30.26 4.44v.64h10.32c5.37 0 10.73.14 16.08.37a317.92 317.92 0 0 1 47.21 5.32 187.77 187.77 0 0 1 42.1 12.97 95.22 95.22 0 0 1 21 12.6c1.51 1.23 3 2.51 4.37 3.87a87.82 87.82 0 0 1 7.24 8.48c2.45-12.6-2.23-28.77-5.36-35.44m-59.66-39.16a67 67 0 0 0 -27.49 5.86c-2-5.55-3.63-11.69-2.26-17.46 1.45-7.05 10.45-10.82 16.33-12.42a54.19 54.19 0 0 1 21.12-1.3c8.37 1 16.09 3.52 22 10.07a10.27 10.27 0 0 1 2.75 6c.44 4.84-.82 9.38-2.59 13.8a14 14 0 0 1 -1 1.89 66.93 66.93 0 0 0 -28.86-6.44"/></g></svg>